<svg viewBox="0 0 35 35" fill="#665C84" xmlns="http://www.w3.org/2000/svg">
<path d="M13.5408 26.6063H5.54302C5.10567 26.6063 4.75116 26.9608 4.75116 27.3982C4.75116 27.8355 5.10567 28.19 5.54302 28.19H13.5408C13.9781 28.19 14.3326 27.8355 14.3326 27.3982C14.3326 26.9608 13.9781 26.6063 13.5408 26.6063Z"/>
<path d="M25.4977 26.6063H17.5C17.0626 26.6063 16.7081 26.9608 16.7081 27.3982C16.7081 27.8355 17.0626 28.19 17.5 28.19H25.4977C25.935 28.19 26.2896 27.8355 26.2896 27.3982C26.2896 26.9608 25.935 26.6063 25.4977 26.6063Z"/>
<path d="M25.4978 6.81H5.54302C5.10567 6.81 4.75116 7.16451 4.75116 7.60185C4.75116 8.03919 5.10567 8.39371 5.54302 8.39371H25.4978C25.935 8.39371 26.2896 8.03919 26.2896 7.60185C26.2896 7.16451 25.935 6.81 25.4978 6.81Z"/>
<path d="M25.4977 10.7692H17.5C17.0626 10.7692 16.7081 11.1237 16.7081 11.5611C16.7081 11.9984 17.0626 12.3529 17.5 12.3529H25.4977C25.935 12.3529 26.2896 11.9984 26.2896 11.5611C26.2896 11.1237 25.935 10.7692 25.4977 10.7692Z"/>
<path d="M25.4977 14.7285H17.5C17.0626 14.7285 16.7081 15.083 16.7081 15.5204C16.7081 15.9577 17.0626 16.3122 17.5 16.3122H25.4977C25.935 16.3122 26.2896 15.9577 26.2896 15.5204C26.2896 15.083 25.935 14.7285 25.4977 14.7285Z"/>
<path d="M25.4977 18.6877H17.5C17.0626 18.6877 16.7081 19.0423 16.7081 19.4796C16.7081 19.917 17.0626 20.2715 17.5 20.2715H25.4977C25.935 20.2715 26.2896 19.917 26.2896 19.4796C26.2896 19.0423 25.935 18.6877 25.4977 18.6877Z"/>
<path d="M25.4977 22.6471H17.5C17.0626 22.6471 16.7081 23.0016 16.7081 23.439C16.7081 23.8763 17.0626 24.2308 17.5 24.2308H25.4977C25.935 24.2308 26.2896 23.8763 26.2896 23.439C26.2896 23.0016 25.935 22.6471 25.4977 22.6471Z"/>
<path d="M13.5408 22.6471H5.54302C5.10567 22.6471 4.75116 23.0016 4.75116 23.439C4.75116 23.8763 5.10567 24.2308 5.54302 24.2308H13.5408C13.9781 24.2308 14.3326 23.8763 14.3326 23.439C14.3326 23.0016 13.9781 22.6471 13.5408 22.6471Z"/>
<path d="M13.5408 10.7692H5.54302C5.10567 10.7692 4.75116 11.1237 4.75116 11.5611V19.5588C4.75116 19.9962 5.10567 20.3507 5.54302 20.3507H13.5408C13.9781 20.3507 14.3326 19.9962 14.3326 19.5588V11.5611C14.3326 11.1237 13.9781 10.7692 13.5408 10.7692ZM12.7489 18.767H6.33487V12.3529H12.7489V18.767Z"/>
<path d="M33.4163 6.01811H31.0407V3.64255C31.0407 2.76929 30.3303 2.05884 29.457 2.05884H1.58371C0.710452 2.05884 0 2.76929 0 3.64255V28.9819C0 31.1651 1.77613 32.9412 3.95928 32.9412H31.0407C33.2239 32.9412 35 31.1651 35 28.9819V7.60182C35 6.72857 34.2895 6.01811 33.4163 6.01811ZM33.4163 28.9819C33.4163 30.2918 32.3506 31.3575 31.0407 31.3575H3.95928C2.64939 31.3575 1.58371 30.2918 1.58371 28.9819V3.64255H29.457V27.7941C29.457 28.8857 30.3451 29.7738 31.4367 29.7738C31.8739 29.7738 32.2285 29.4193 32.2285 28.9819C32.2285 28.5446 31.8739 28.1901 31.4367 28.1901C31.2183 28.1901 31.0407 28.0124 31.0407 27.7941V7.60182H33.4163V28.9819Z"/>
</svg>
