<svg viewBox="0 0 35 35" fill="#665C84" xmlns="http://www.w3.org/2000/svg">
<path d="M33.25 2.33333H29.1667V0.583333C29.1667 0.26075 28.9059 0 28.5833 0H24.5C24.1774 0 23.9167 0.26075 23.9167 0.583333V2.33333H11.0834V0.583333C11.0834 0.26075 10.8226 0 10.5 0H6.41669C6.0941 0 5.83335 0.26075 5.83335 0.583333V2.33333H1.75002C1.42744 2.33333 1.16669 2.59408 1.16669 2.91667V9.33333V34.4167C1.16669 34.7393 1.42744 35 1.75002 35H33.25C33.5726 35 33.8333 34.7393 33.8333 34.4167V9.33333V2.91667C33.8333 2.59408 33.5726 2.33333 33.25 2.33333ZM25.0833 1.16667H28V2.91667V4.66667H25.0833V2.91667V1.16667ZM7.00002 1.16667H9.91669V2.91667V4.66667H7.00002V2.91667V1.16667ZM2.33335 3.5H5.83335V5.25C5.83335 5.57258 6.0941 5.83333 6.41669 5.83333H10.5C10.8226 5.83333 11.0834 5.57258 11.0834 5.25V3.5H23.9167V5.25C23.9167 5.57258 24.1774 5.83333 24.5 5.83333H28.5833C28.9059 5.83333 29.1667 5.57258 29.1667 5.25V3.5H32.6667V8.75H2.33335V3.5ZM2.33335 33.8333V9.91667H32.6667V33.8333H2.33335Z"/>
<path d="M22.1667 13.4167H18.0834H16.9167H12.8334H11.6667H6.41669V18.6667V19.8334V23.9167V25.0834V30.3334H11.6667H12.8334H16.9167H18.0834H22.1667H23.3334H28.5834V25.0834V23.9167V19.8334V18.6667V13.4167H23.3334H22.1667ZM18.0834 14.5834H22.1667V18.6667H18.0834V14.5834ZM22.1667 23.9167H18.0834V19.8334H22.1667V23.9167ZM12.8334 19.8334H16.9167V23.9167H12.8334V19.8334ZM12.8334 14.5834H16.9167V18.6667H12.8334V14.5834ZM7.58335 14.5834H11.6667V18.6667H7.58335V14.5834ZM7.58335 19.8334H11.6667V23.9167H7.58335V19.8334ZM11.6667 29.1667H7.58335V25.0834H11.6667V29.1667ZM16.9167 29.1667H12.8334V25.0834H16.9167V29.1667ZM22.1667 29.1667H18.0834V25.0834H22.1667V29.1667ZM27.4167 29.1667H23.3334V25.0834H27.4167V29.1667ZM27.4167 23.9167H23.3334V19.8334H27.4167V23.9167ZM27.4167 14.5834V18.6667H23.3334V14.5834H27.4167Z"/>
</svg>
