<svg viewBox="0 0 35 35" fill="#665C84" xmlns="http://www.w3.org/2000/svg">
<path d="M33.9613 12.4725L29.6589 8.88178V3.78766C29.6589 3.34783 29.275 3.01195 28.8272 3.01195H22.5655L20.0544 0.916725C18.575 -0.306823 16.4318 -0.306823 14.9523 0.924722L12.4412 3.01195H6.09959C5.65975 3.01195 5.2679 3.33983 5.2679 3.78766V8.96175L1.04546 12.4725C0.869527 12.6244 0.765566 12.8563 0.773563 13.0882H0.789557V30.9936C0.789557 33.2008 2.5649 35.0001 4.76409 35.0001H30.2347C32.4418 35.0001 34.2092 33.1928 34.2092 30.9936V13.0882H34.2252C34.2412 12.8483 34.1452 12.6244 33.9613 12.4725ZM29.6589 10.961L32.1779 13.0562L29.6589 14.9275V10.961ZM15.9759 2.14827C16.8636 1.41254 18.1511 1.42054 19.0388 2.15627L20.0544 3.01195H14.9443L15.9759 2.14827ZM6.86731 4.61136H28.0595V16.1191L18.9508 22.9006C18.0872 23.5324 16.9196 23.5324 16.0639 22.9006L6.86731 16.0551V4.61136ZM5.2679 11.033V14.8636L2.8288 13.0482L5.2679 11.033ZM32.6178 30.9856C32.6258 32.3131 31.5622 33.3927 30.2427 33.4007H4.76409C3.44457 33.3927 2.38097 32.3131 2.38896 30.9936V14.6796L15.1203 24.1881C16.5357 25.2357 18.471 25.2357 19.8865 24.1881L32.6178 14.6796V30.9856Z" />
<path d="M16.8636 11.009H12.5452C12.1054 11.009 11.7455 11.3688 11.7455 11.8087C11.7455 12.2485 12.1054 12.6084 12.5452 12.6084H16.8636C17.3034 12.6084 17.6633 12.2485 17.6633 11.8087C17.6633 11.3688 17.3034 11.009 16.8636 11.009Z" />
<path d="M22.4615 15.0075H12.5452C12.1053 15.0075 11.7455 15.3674 11.7455 15.8072C11.7455 16.247 12.1053 16.6069 12.5452 16.6069H22.4615C22.9013 16.6069 23.2612 16.247 23.2612 15.8072C23.2612 15.3674 22.9013 15.0075 22.4615 15.0075Z" />
</svg>
